HIERARCHY
ROOT hip
{
	OFFSET 0.000000 0.000000 0.000000 
	CHANNELS 6 Xposition Yposition Zposition Zrotation Xrotation Yrotation
	JOINT abdomen
	{
		OFFSET 0.000000 3.402643 0.000000 
		CHANNELS 3 Zrotation Xrotation Yrotation
		JOINT chest
		{
			OFFSET 0.000000 8.438565 -0.680529 
			CHANNELS 3 Zrotation Xrotation Yrotation
			JOINT neck
			{
				OFFSET 0.000000 10.207942 -0.272212 
				CHANNELS 3 Zrotation Xrotation Yrotation
				JOINT head
				{
					OFFSET 0.000000 3.130431 0.000000 
					CHANNELS 3 Zrotation Xrotation Yrotation
					End Site
					{
						OFFSET 0.000000 3.130435 0.000000 
					}
				}
			}
			JOINT lCollar
			{
				OFFSET 3.470700 6.669187 -0.816635 
				CHANNELS 3 Zrotation Xrotation Yrotation
				JOINT lShldr
				{
					OFFSET 3.198488 0.000000 0.000000 
					CHANNELS 3 Zrotation Xrotation Yrotation
					JOINT lForeArm
					{
						OFFSET 10.139888 0.000000 0.000000 
						CHANNELS 3 Zrotation Xrotation Yrotation
						JOINT lHand
						{
							OFFSET 8.370511 0.000000 0.000000 
							CHANNELS 3 Zrotation Xrotation Yrotation
							End Site
							{
								OFFSET 4.083176 0.000000 0.000000 
							}
						}
					}
				}
			}
			JOINT rCollar
			{
				OFFSET -3.470700 6.669187 -0.816635 
				CHANNELS 3 Zrotation Xrotation Yrotation
				JOINT rShldr
				{
					OFFSET -3.198488 0.000000 0.000000 
					CHANNELS 3 Zrotation Xrotation Yrotation
					JOINT rForeArm
					{
						OFFSET -10.139888 0.000000 0.000000 
						CHANNELS 3 Zrotation Xrotation Yrotation
						JOINT rHand
						{
							OFFSET -8.370511 0.000000 0.000000 
							CHANNELS 3 Zrotation Xrotation Yrotation
							End Site
							{
								OFFSET -4.083176 0.000000 0.000000 
							}
						}
					}
				}
			}
		}
	}
	JOINT lThigh
	{
		OFFSET 5.308129 -1.633274 1.361059 
		CHANNELS 3 Zrotation Xrotation Yrotation
		JOINT lShin
		{
			OFFSET -2.041588 -20.007561 0.000000 
			CHANNELS 3 Zrotation Xrotation Yrotation
			JOINT lFoot
			{
				OFFSET 0.000000 -19.190928 -1.224953 
				CHANNELS 3 Zrotation Xrotation Yrotation
				End Site
				{
					OFFSET 0.000000 -2.449906 4.627600 
				}
			}
		}
	}
	JOINT rThigh
	{
		OFFSET -5.308129 -1.633274 1.361059 
		CHANNELS 3 Zrotation Xrotation Yrotation
		JOINT rShin
		{
			OFFSET 2.041588 -20.007561 0.000000 
			CHANNELS 3 Zrotation Xrotation Yrotation
			JOINT rFoot
			{
				OFFSET 0.000000 -19.190928 -1.224953 
				CHANNELS 3 Zrotation Xrotation Yrotation
				End Site
				{
					OFFSET 0.000000 -2.449906 4.627600 
				}
			}
		}
	}
}
MOTION
Frames: 8
Frame Time: 0.033333
0.694303 50.284412 -3.681066 -0.371197 -1.347633 -2.157167 -0.000000 -0.000002 -0.000000 0.809379 8.358550 -6.572608 -3.610067 3.450184 10.158337 -0.954937 -15.993991 -0.145955 -2.000757 -0.069240 1.990978 -74.317596 -3.437364 -0.508728 0.924278 10.805798 -12.099132 -18.961061 6.882682 -1.416458 1.990970 -0.069577 -2.000746 74.909691 8.045128 1.203250 -4.097542 14.447562 17.604834 17.747932 -7.137096 8.996055 10.290047 -14.377761 12.231205 -5.686865 30.396353 2.256169 -0.755636 -7.854548 -3.269486 -7.843029 -9.132434 2.354888 9.180827 25.718128 0.107887 -5.210408 -18.998634 -13.696170 
0.584403 49.388813 -3.539509 -0.351624 -1.064436 -1.852295 -0.000000 -0.000002 -0.000000 1.211558 14.703893 0.844978 -3.615980 -2.212395 2.105702 -0.954937 -15.993991 -0.145955 -2.000757 -0.069240 1.990978 -73.122231 6.297287 -9.638788 1.188870 10.747966 -14.602094 -16.738119 5.786667 -2.228141 1.990970 -0.069577 -2.000746 74.136719 7.274211 4.341652 -4.732622 14.245817 20.217291 12.637471 -6.473031 14.016962 11.104808 -18.830523 10.452350 -7.751343 37.951477 3.516731 0.038760 -9.182055 -2.003674 -9.148800 -14.244210 2.243487 13.112868 33.757298 -1.922474 -6.021736 -20.359409 -14.216029 
0.475123 48.310501 -3.166075 -0.322299 -0.820308 -1.469509 -0.000000 -0.000002 -0.000000 0.803442 20.623146 7.998227 -4.243020 -7.255665 -5.557093 -0.954937 -15.993991 -0.145955 -2.000757 -0.069240 1.990978 -69.337982 16.518803 -18.944534 1.558008 10.659390 -18.235851 -14.019535 4.533718 -3.134824 1.990970 -0.069577 -2.000746 72.904457 8.292321 7.313200 -5.430237 13.989354 23.165920 6.513704 -6.150677 19.540859 12.079350 -24.093515 8.467730 -10.828317 47.051991 5.716510 0.303565 -7.452394 -0.522294 -10.315123 -18.862289 2.031208 17.564581 41.422226 -4.684342 -6.778864 -21.645100 -14.806204 
0.365717 47.260048 -2.838990 -0.302753 -0.634762 -1.009213 -0.000000 -0.000002 -0.000000 0.107222 24.384729 12.748712 -4.851640 -10.159549 -10.614440 -0.954937 -15.993991 -0.145955 -2.000757 -0.069240 1.990978 -63.775566 24.994915 -26.657911 1.997252 10.510040 -22.530079 -10.997967 3.155533 -4.039323 1.990970 -0.069577 -2.000746 71.431175 11.928268 8.974632 -6.115753 13.697511 26.046879 0.536412 -6.353680 24.958632 13.041166 -30.532677 6.476424 -15.299166 56.329075 9.268045 -0.634136 3.186312 1.513249 -11.226802 -22.523804 1.755942 22.120996 47.602776 -7.949566 -7.230945 -22.536211 -15.395951 
0.294828 44.943039 -1.633534 -0.273448 -0.488291 -0.480846 -0.000000 -0.000002 -0.000000 -0.021551 24.999998 13.388012 -4.720816 -10.034902 -11.507996 -0.954937 -15.993991 -0.145955 -2.000757 -0.069240 1.990978 -58.732056 30.941442 -30.506565 2.429353 10.331543 -27.067266 -7.900240 1.712485 -4.894768 1.990970 -0.069577 -2.000746 70.471840 14.085457 11.361564 -6.555409 13.474234 27.992371 -5.944086 -3.961245 28.648972 13.346519 -34.296871 3.903500 -24.586365 66.883759 17.609421 -1.142658 -0.928687 2.003021 -12.598425 -29.209116 1.476005 31.205601 56.249332 -15.208792 -9.090984 -25.482786 -16.230509 
0.263026 41.208466 0.658833 -0.253911 -0.371088 0.105777 -0.000000 -0.000002 -0.000000 0.043079 24.931637 13.106847 -4.372668 -9.192377 -11.501374 -0.954937 -15.993991 -0.145955 -2.000757 -0.069240 1.990978 -53.764210 36.001087 -33.866714 2.844117 10.128457 -31.370741 -4.935999 0.251715 -5.654331 1.990970 -0.069577 -2.000746 69.927795 11.833771 16.343086 -6.815152 13.346860 29.149567 -14.129324 1.460775 31.554424 13.818231 -38.257782 1.279532 -61.480518 78.379288 53.287575 -1.675303 -5.828185 1.784922 -14.571846 -39.342777 0.774880 49.540916 65.385056 -31.466673 -11.784504 -29.014690 -17.280924 
0.231223 37.475410 2.951202 -0.234378 -0.283226 0.740988 -0.000000 -0.000002 -0.000000 0.128996 24.706984 12.592587 -3.955310 -8.076680 -11.298771 -0.954937 -15.993991 -0.145955 -2.000757 -0.069240 1.990978 -49.036392 40.058891 -37.219532 3.170656 9.938341 -34.986649 -2.304090 -1.146471 -6.290312 1.990970 -0.069577 -2.000746 69.614120 9.714559 20.899332 -7.198515 13.146708 30.822443 -22.147560 6.371510 34.756943 13.538622 -40.062317 -1.772803 -125.537697 77.192566 116.381355 -2.291362 -10.349598 0.780261 -16.724443 -49.014088 -0.218782 72.858353 69.798096 -53.217190 -13.324984 -30.355999 -18.196232 
0.199418 33.744152 5.243577 -0.214846 -0.234390 1.424903 -0.000000 -0.000002 -0.000000 0.257250 24.345497 11.886179 -3.490850 -6.725896 -10.936690 -0.954937 -15.993991 -0.145955 -2.000757 -0.069240 1.990978 -49.650501 41.098110 -35.995674 3.190517 9.915429 -35.212673 -2.579818 -0.455007 -7.549053 1.990970 -0.069577 -2.000746 69.298187 9.320271 4.265395 -13.195238 6.684547 65.666519 -15.018911 12.171853 19.528486 13.098219 -39.915932 -4.893926 -150.833679 68.653931 140.842972 -2.738870 -15.119309 -1.008723 -19.553270 -58.607037 -1.864803 95.635544 70.419388 -74.767632 -13.648734 -29.894388 -18.841986 
